<svg viewBox="0 0 1500 287" fill="none" xmlns="http://www.w3.org/2000/svg">
<g clip-path="url(#clip0_12_3356)">
<g clip-path="url(#clip1_12_3356)">
<g clip-path="url(#clip2_12_3356)">
<g clip-path="url(#clip3_12_3356)">
<g clip-path="url(#clip4_12_3356)">
<g clip-path="url(#clip5_12_3356)">
<g clip-path="url(#clip6_12_3356)">
<path d="M455.947 197.494H387.254V44.7487H449.333C463.556 44.7487 474.578 48.3043 482.4 55.4153C490.506 62.8108 494.56 72.1974 494.56 83.5751C494.56 99.2194 487.449 110.313 473.227 116.855C491.858 123.966 501.173 136.339 501.173 153.974C501.173 166.205 497.262 176.445 489.44 184.694C481.333 193.227 470.169 197.494 455.947 197.494ZM406.667 62.0286V110.455H444.427C454.382 110.455 461.778 108.677 466.613 105.122C472.16 100.997 474.933 94.7394 474.933 86.3484C474.933 77.9573 472.16 71.6285 466.613 67.3619C461.778 63.8064 454.382 62.0286 444.427 62.0286H406.667ZM406.667 127.735V180.214H454.24C462.916 180.214 469.671 177.896 474.507 173.26C479.342 168.652 481.76 162.223 481.76 153.974C481.76 145.726 479.342 139.283 474.507 134.647C469.671 130.039 462.916 127.735 454.24 127.735H406.667ZM611.252 87.8417V197.494H593.972V180.214C586.15 193.299 574.488 199.841 558.986 199.841C548.319 199.841 539.814 197.167 533.471 191.819C527.157 186.5 523.999 179.361 523.999 170.401V87.8417H541.279V163.361C541.279 169.761 543.342 174.881 547.466 178.721C551.59 182.561 557.137 184.481 564.106 184.481C573.208 184.481 580.461 181.167 585.866 174.54C591.27 167.941 593.972 159.023 593.972 147.788V87.8417H611.252ZM713.225 44.7487H730.718V197.494H713.225V182.348C706.227 194.152 695.418 200.054 680.798 200.054C664.727 200.054 652.354 194.223 643.678 182.561C636.112 172.321 632.329 158.81 632.329 142.028C632.329 123.681 637.25 109.317 647.092 98.9349C655.483 89.975 666.363 85.4951 679.731 85.4951C694.522 85.4951 705.687 91.0417 713.225 102.135V44.7487ZM682.718 101.708C673.047 101.708 665.253 105.506 659.337 113.1C653.421 120.723 650.462 130.792 650.462 143.308C650.462 156.25 653.89 166.419 660.745 173.814C666.576 180.356 673.971 183.628 682.931 183.628C692.176 183.628 699.529 180.001 704.99 172.748C710.48 165.494 713.225 155.681 713.225 143.308C713.225 129.797 710.081 119.273 703.795 111.735C698.277 105.05 691.251 101.708 682.718 101.708ZM829.447 104.268V87.8417H845.661V179.574C845.661 203.325 841.821 219.823 834.141 229.067C826.461 238.454 813.874 243.147 796.381 243.147C782.728 243.147 772.061 239.876 764.381 233.334C757.555 227.503 753.715 219.752 752.861 210.081H770.781C771.635 215.769 773.768 219.965 777.181 222.667C782.159 226.507 788.843 228.427 797.234 228.427C808.612 228.427 816.719 225.014 821.554 218.187C825.679 212.356 827.741 202.401 827.741 188.321V181.281C818.639 193.654 807.688 199.841 794.888 199.841C782.372 199.841 771.777 195.147 763.101 185.761C753.857 175.663 749.235 161.868 749.235 144.375C749.235 125.601 754.07 110.668 763.741 99.5749C772.275 90.1883 783.012 85.4951 795.954 85.4951C809.892 85.4951 821.056 91.7528 829.447 104.268ZM797.874 101.495C788.488 101.495 781.064 105.221 775.603 112.673C770.113 120.154 767.368 130.366 767.368 143.308C767.368 156.819 770.497 167.13 776.755 174.241C782.017 180.499 789.128 183.628 798.088 183.628C807.474 183.628 814.77 180.072 819.976 172.961C825.152 165.85 827.741 155.966 827.741 143.308C827.741 129.37 824.754 118.704 818.781 111.308C813.519 104.766 806.55 101.495 797.874 101.495ZM967.046 147.148V147.788H886.194C886.336 157.174 888.327 164.641 892.167 170.188C898.282 179.148 907.1 183.628 918.62 183.628C932.842 183.628 942.442 176.872 947.42 163.361H964.913C962.637 174.881 957.375 183.841 949.126 190.241C940.878 196.641 930.495 199.841 917.98 199.841C901.34 199.841 888.611 194.152 879.794 182.774C871.972 172.819 868.06 159.663 868.06 143.308C868.06 124.392 873.18 109.673 883.42 99.1483C892.38 90.0461 903.971 85.4951 918.193 85.4951C928.576 85.4951 937.706 87.9839 945.585 92.9617C953.493 97.9394 959.153 104.766 962.566 113.441C965.553 120.837 967.046 132.072 967.046 147.148ZM886.834 133.495H948.273C948.273 123.966 945.457 116.243 939.825 110.327C934.222 104.439 927.011 101.495 918.193 101.495C909.233 101.495 901.952 104.368 896.348 110.114C890.716 115.888 887.545 123.681 886.834 133.495ZM1011.42 87.8417H1033.82V101.922H1011.42V174.881C1011.42 177.441 1012.3 179.603 1014.06 181.366C1015.86 183.158 1018.17 184.054 1021.02 184.054C1023.72 184.054 1027.85 183.414 1033.39 182.134L1035.31 197.494C1026.49 199.059 1019.81 199.841 1015.26 199.841C1001.18 199.841 994.139 194.081 994.139 182.561V101.922H979.206V87.8417H994.139V65.4419L1011.42 57.5486V87.8417ZM1234.09 44.7487L1195.52 197.494H1174.19L1138.99 72.0552L1104.6 197.494H1083.27L1044.23 44.7487H1065.99L1094.79 168.694L1128.75 44.7487H1149.66L1184.43 168.694L1212.59 44.7487H1234.09ZM1251.16 87.8417H1268.44V197.494H1251.16V87.8417ZM1260.12 44.9621C1263.11 44.9621 1265.64 46.0003 1267.72 48.0767C1269.76 50.1247 1270.79 52.5709 1270.79 55.4153C1270.79 58.402 1269.76 60.9193 1267.72 62.9673C1265.64 65.0437 1263.11 66.0819 1260.12 66.0819C1257.28 66.0819 1254.83 65.0437 1252.78 62.9673C1250.71 60.9193 1249.67 58.402 1249.67 55.4153C1249.67 52.5709 1250.71 50.1247 1252.78 48.0767C1254.83 46.0003 1257.28 44.9621 1260.12 44.9621ZM1376.39 117.921H1357.19C1356.62 106.97 1349.29 101.495 1335.21 101.495C1327.96 101.495 1322.24 102.874 1318.06 105.634C1313.85 108.421 1311.75 112.161 1311.75 116.855C1311.75 123.966 1318.5 129.086 1332.01 132.215L1348.87 136.055C1359.82 138.615 1367.71 142.241 1372.55 146.935C1377.38 151.628 1379.8 158.028 1379.8 166.134C1379.8 176.516 1375.75 184.723 1367.64 190.753C1359.53 196.811 1348.58 199.841 1334.79 199.841C1319.71 199.841 1308.26 196.285 1300.44 189.174C1293.9 183.343 1290.41 175.592 1289.99 165.921H1309.83C1310.97 170.899 1312.53 174.525 1314.52 176.801C1318.36 181.352 1325.54 183.628 1336.07 183.628C1343.89 183.628 1350.12 182.163 1354.75 179.233C1359.36 176.332 1361.67 172.463 1361.67 167.628C1361.67 160.374 1356.05 155.397 1344.81 152.694L1328.39 148.855C1315.87 145.868 1307.13 142.312 1302.15 138.188C1296.46 133.495 1293.61 126.739 1293.61 117.921C1293.61 107.966 1297.41 100.073 1305.01 94.2416C1312.63 88.4106 1322.84 85.4951 1335.64 85.4951C1349.01 85.4951 1359.39 88.8373 1366.79 95.5216C1373.19 101.353 1376.39 108.819 1376.39 117.921ZM1495.85 147.148V147.788H1415C1415.14 157.174 1417.13 164.641 1420.97 170.188C1427.09 179.148 1435.91 183.628 1447.43 183.628C1461.65 183.628 1471.25 176.872 1476.23 163.361H1493.72C1491.44 174.881 1486.18 183.841 1477.93 190.241C1469.68 196.641 1459.3 199.841 1446.79 199.841C1430.15 199.841 1417.42 194.152 1408.6 182.774C1400.78 172.819 1396.87 159.663 1396.87 143.308C1396.87 124.392 1401.99 109.673 1412.23 99.1483C1421.19 90.0461 1432.78 85.4951 1447 85.4951C1457.38 85.4951 1466.51 87.9839 1474.39 92.9617C1482.3 97.9394 1487.96 104.766 1491.37 113.441C1494.36 120.837 1495.85 132.072 1495.85 147.148ZM1415.64 133.495H1477.08C1477.08 123.966 1474.26 116.243 1468.63 110.327C1463.03 104.439 1455.82 101.495 1447 101.495C1438.04 101.495 1430.74 104.368 1425.11 110.114C1419.51 115.888 1416.35 123.681 1415.64 133.495Z" fill="white"/>
</g>
</g>
</g>
</g>
<g clip-path="url(#clip7_12_3356)">
<g clip-path="url(#clip8_12_3356)">
<path d="M94.5407 62.9165C110.446 62.9165 123.525 51.0754 125.645 35.6998H179.372L202.347 68.9253C203.231 70.1625 204.468 70.6926 205.882 70.6926H336.133C338.43 70.6926 340.374 68.7486 340.374 66.4511C340.374 64.1536 338.43 62.2095 336.133 62.2095H208.002L185.027 28.984C184.144 27.7469 182.906 27.2167 181.493 27.2167H125.469C123.348 11.841 110.27 1.52588e-05 94.3639 1.52588e-05C77.0442 1.52588e-05 62.9057 14.1385 62.9057 31.4582C62.9057 48.7779 77.221 62.9165 94.5407 62.9165ZM94.5407 8.65987C107.089 8.65987 117.339 18.9103 117.339 31.4582C117.339 44.0062 107.089 54.2566 94.5407 54.2566C81.9927 54.2566 71.7423 44.0062 71.7423 31.4582C71.7423 18.9103 81.816 8.65987 94.5407 8.65987Z" fill="#00D196"/>
<path d="M336.133 111.341H200.58C198.459 95.9653 185.381 84.1242 169.475 84.1242C152.155 84.1242 138.017 98.2628 138.017 115.582C138.017 132.902 152.155 147.041 169.475 147.041C185.381 147.041 198.459 135.2 200.58 119.824H336.133C338.43 119.824 340.374 117.88 340.374 115.582C340.374 113.285 338.43 111.341 336.133 111.341ZM169.475 138.558C156.927 138.558 146.676 128.307 146.676 115.759C146.676 103.211 156.927 92.7841 169.475 92.7841C182.023 92.7841 192.273 103.035 192.273 115.582C192.273 128.307 182.023 138.558 169.475 138.558Z" fill="#00D196"/>
<path d="M336.133 165.774H217.899C216.485 165.774 215.072 166.481 214.188 167.718L197.575 194.228H124.762L106.735 160.649C106.028 159.235 104.614 158.352 103.024 158.352H64.8497C62.7289 142.976 49.6508 131.135 33.745 131.135C16.4253 131.135 2.28674 145.273 2.28674 162.593C2.28674 179.913 16.4253 194.051 33.745 194.051C49.6508 194.051 62.7289 182.21 64.8497 166.835H100.373L118.399 200.414C119.106 201.827 120.52 202.711 122.111 202.711H199.873C201.286 202.711 202.7 202.004 203.584 200.767L220.197 174.257H335.956C338.253 174.257 340.197 172.313 340.197 170.016C340.374 167.718 338.43 165.774 336.133 165.774ZM33.745 185.745C21.197 185.745 10.9466 175.494 10.9466 162.947C10.9466 150.399 21.197 140.148 33.745 140.148C46.2929 140.148 56.5433 150.399 56.5433 162.947C56.7201 175.494 46.4696 185.745 33.745 185.745Z" fill="#00D196"/>
<path d="M336.133 215.789H267.914C266.324 215.789 264.91 216.673 264.203 217.91L244.056 252.196H141.198C139.077 236.82 125.999 224.979 110.093 224.979C92.7733 224.979 78.6348 239.118 78.6348 256.438C78.6348 273.757 92.7733 287.896 110.093 287.896C125.999 287.896 139.077 276.055 141.198 260.679H246.53C248.12 260.679 249.534 259.795 250.241 258.558L270.389 224.272H336.133C338.43 224.272 340.374 222.328 340.374 220.031C340.374 217.733 338.43 215.789 336.133 215.789ZM110.093 279.413C97.545 279.413 87.2946 269.162 87.2946 256.614C87.2946 244.066 97.545 233.816 110.093 233.816C122.641 233.816 132.891 244.066 132.891 256.614C133.068 269.162 122.818 279.413 110.093 279.413Z" fill="#00D196"/>
</g>
</g>
</g>
</g>
</g>
<defs>
<clipPath id="clip0_12_3356">
<rect width="1500" height="287" fill="white" transform="translate(-0.909119 0.447884)"/>
</clipPath>
<clipPath id="clip1_12_3356">
<rect width="1493.61" height="287.896" fill="white" transform="translate(2.28668 7.62939e-06)"/>
</clipPath>
<clipPath id="clip2_12_3356">
<rect width="1493.61" height="287.896" fill="white" transform="translate(2.28668 7.62939e-06)"/>
</clipPath>
<clipPath id="clip3_12_3356">
<rect width="1108.68" height="198.398" fill="white" transform="translate(387.211 44.7487)"/>
</clipPath>
<clipPath id="clip4_12_3356">
<rect width="1108.68" height="198.398" fill="white" transform="translate(387.211 44.7487)"/>
</clipPath>
<clipPath id="clip5_12_3356">
<rect width="1108.68" height="198.398" fill="white" transform="translate(387.211 44.7487)"/>
</clipPath>
<clipPath id="clip6_12_3356">
<rect width="1108.68" height="198.398" fill="white" transform="translate(387.211 44.7487)"/>
</clipPath>
<clipPath id="clip7_12_3356">
<rect width="338.088" height="287.896" fill="white" transform="translate(2.28668 7.62939e-06)"/>
</clipPath>
<clipPath id="clip8_12_3356">
<rect width="338.088" height="287.896" fill="white" transform="translate(2.28668 7.62939e-06)"/>
</clipPath>
</defs>
</svg>
