<svg xmlns="http://www.w3.org/2000/svg" version="1.1" xmlns:xlink="http://www.w3.org/1999/xlink" xmlns:svgjs="http://svgjs.dev/svgjs" width="1500" height="287" viewBox="0 0 1500 287"><g transform="matrix(1,0,0,1,-0.9090909090911055,0.4478830550915802)"><svg viewBox="0 0 396 76" data-background-color="#242323" preserveAspectRatio="xMidYMid meet" height="287" width="1500" xmlns="http://www.w3.org/2000/svg" xmlns:xlink="http://www.w3.org/1999/xlink"><g id="tight-bounds" transform="matrix(1,0,0,1,0.24000000000003752,-0.11860317835177625)"><svg viewBox="0 0 395.5199999999999 76.23720635670354" height="76.23720635670354" width="395.5199999999999"><g><svg viewBox="0 0 532.8408327789211 102.70604905907255" height="76.23720635670354" width="395.5199999999999"><g transform="matrix(1,0,0,1,137.32083277892113,15.963992395612863)"><svg viewBox="0 0 395.52 70.77806426784683" height="70.77806426784683" width="395.52"><g id="textblocktransform"><svg viewBox="0 0 395.52 70.77806426784683" height="70.77806426784683" width="395.52" id="textblock"><g><svg viewBox="0 0 395.52 70.77806426784683" height="70.77806426784683" width="395.52"><g transform="matrix(1,0,0,1,0,0)"><svg width="395.52" viewBox="3.9 -35.8 259.83000000000004 46.5" height="70.77806426784683" data-palette-color="#ffffff"><path d="M20 0L3.9 0 3.9-35.8 18.45-35.8Q23.45-35.8 26.2-33.3L26.2-33.3Q29.05-30.7 29.05-26.7L29.05-26.7Q29.05-21.2 24.05-18.9L24.05-18.9Q30.6-16.4 30.6-10.2L30.6-10.2Q30.6-5.9 27.85-3L27.85-3Q25 0 20 0L20 0ZM8.45-31.75L8.45-20.4 17.3-20.4Q20.8-20.4 22.5-21.65L22.5-21.65Q24.45-23.1 24.45-26.05L24.45-26.05Q24.45-29 22.5-30.5L22.5-30.5Q20.8-31.75 17.3-31.75L17.3-31.75 8.45-31.75ZM8.45-16.35L8.45-4.05 19.6-4.05Q22.65-4.05 24.35-5.68 26.05-7.3 26.05-10.2L26.05-10.2Q26.05-13.1 24.35-14.73 22.65-16.35 19.6-16.35L19.6-16.35 8.45-16.35ZM56.4-25.7L56.4 0 52.35 0 52.35-4.05Q49.6 0.55 44.15 0.55L44.15 0.55Q40.4 0.55 38.17-1.33 35.95-3.2 35.95-6.35L35.95-6.35 35.95-25.7 40-25.7 40-8Q40-5.75 41.45-4.4 42.9-3.05 45.35-3.05L45.35-3.05Q48.55-3.05 50.45-5.38 52.35-7.7 52.35-11.65L52.35-11.65 52.35-25.7 56.4-25.7ZM80.3-35.8L84.4-35.8 84.4 0 80.3 0 80.3-3.55Q77.84 0.6 72.7 0.6L72.7 0.6Q67.05 0.6 64-3.5L64-3.5Q61.34-7.1 61.34-13L61.34-13Q61.34-19.45 64.8-23.1L64.8-23.1Q67.75-26.25 72.45-26.25L72.45-26.25Q77.65-26.25 80.3-22.35L80.3-22.35 80.3-35.8ZM73.15-22.45L73.15-22.45Q69.75-22.45 67.67-19.78 65.59-17.1 65.59-12.7L65.59-12.7Q65.59-8.15 68-5.55L68-5.55Q70.05-3.25 73.2-3.25L73.2-3.25Q76.45-3.25 78.37-5.8 80.3-8.35 80.3-12.7L80.3-12.7Q80.3-17.45 78.09-20.1L78.09-20.1Q76.15-22.45 73.15-22.45ZM107.54-21.85L107.54-25.7 111.34-25.7 111.34-4.2Q111.34 4.15 108.64 7.4L108.64 7.4Q105.94 10.7 99.79 10.7L99.79 10.7Q94.99 10.7 92.29 8.4L92.29 8.4Q89.89 6.35 89.59 2.95L89.59 2.95 93.79 2.95Q94.09 4.95 95.29 5.9L95.29 5.9Q97.04 7.25 99.99 7.25L99.99 7.25Q103.99 7.25 105.69 4.85L105.69 4.85Q107.14 2.8 107.14-2.15L107.14-2.15 107.14-3.8Q103.94 0.55 99.44 0.55L99.44 0.55Q95.04 0.55 91.99-2.75L91.99-2.75Q88.74-6.3 88.74-12.45L88.74-12.45Q88.74-19.05 92.14-22.95L92.14-22.95Q95.14-26.25 99.69-26.25L99.69-26.25Q104.59-26.25 107.54-21.85L107.54-21.85ZM100.14-22.5L100.14-22.5Q96.84-22.5 94.92-19.88 92.99-17.25 92.99-12.7L92.99-12.7Q92.99-7.95 95.19-5.45L95.19-5.45Q97.04-3.25 100.19-3.25L100.19-3.25Q103.49-3.25 105.32-5.75 107.14-8.25 107.14-12.7L107.14-12.7Q107.14-17.6 105.04-20.2L105.04-20.2Q103.19-22.5 100.14-22.5ZM139.79-11.8L139.79-11.65 120.84-11.65Q120.89-8.35 122.24-6.4L122.24-6.4Q124.39-3.25 128.44-3.25L128.44-3.25Q133.44-3.25 135.19-8L135.19-8 139.29-8Q138.49-3.95 135.59-1.7 132.69 0.55 128.29 0.55L128.29 0.55Q122.44 0.55 119.34-3.45L119.34-3.45Q116.59-6.95 116.59-12.7L116.59-12.7Q116.59-19.35 120.19-23.05L120.19-23.05Q123.34-26.25 128.34-26.25L128.34-26.25Q131.99-26.25 134.76-24.5 137.54-22.75 138.74-19.7L138.74-19.7Q139.79-17.1 139.79-11.8L139.79-11.8ZM120.99-15L135.39-15Q135.39-18.35 133.41-20.43 131.44-22.5 128.34-22.5L128.34-22.5Q125.19-22.5 123.22-20.48 121.24-18.45 120.99-15L120.99-15ZM150.19-25.7L155.44-25.7 155.44-22.4 150.19-22.4 150.19-5.3Q150.19-4.4 150.81-3.78 151.44-3.15 152.44-3.15L152.44-3.15Q153.39-3.15 155.34-3.6L155.34-3.6 155.79 0Q152.69 0.55 151.09 0.55L151.09 0.55Q146.14 0.55 146.14-3.5L146.14-3.5 146.14-22.4 142.64-22.4 142.64-25.7 146.14-25.7 146.14-30.95 150.19-32.8 150.19-25.7ZM202.38-35.8L193.34 0 188.34 0 180.09-29.4 172.03 0 167.03 0 157.88-35.8 162.98-35.8 169.73-6.75 177.69-35.8 182.59-35.8 190.74-6.75 197.34-35.8 202.38-35.8ZM206.38-25.7L210.43-25.7 210.43 0 206.38 0 206.38-25.7ZM208.48-35.75L208.48-35.75Q209.53-35.75 210.26-35.02 210.98-34.3 210.98-33.3L210.98-33.3Q210.98-32.25 210.26-31.53 209.53-30.8 208.48-30.8L208.48-30.8Q207.48-30.8 206.76-31.53 206.03-32.25 206.03-33.3L206.03-33.3Q206.03-34.3 206.76-35.02 207.48-35.75 208.48-35.75ZM235.73-18.65L235.73-18.65 231.23-18.65Q231.03-22.5 226.08-22.5L226.08-22.5Q223.53-22.5 222.06-21.53 220.58-20.55 220.58-18.9L220.58-18.9Q220.58-16.4 225.33-15.3L225.33-15.3 229.28-14.4Q233.13-13.5 234.83-11.85 236.53-10.2 236.53-7.35L236.53-7.35Q236.53-3.7 233.68-1.58 230.83 0.55 225.98 0.55L225.98 0.55Q220.68 0.55 217.93-1.95L217.93-1.95Q215.63-4 215.48-7.4L215.48-7.4 220.13-7.4Q220.53-5.65 221.23-4.85L221.23-4.85Q222.58-3.25 226.28-3.25L226.28-3.25Q229.03-3.25 230.66-4.28 232.28-5.3 232.28-7L232.28-7Q232.28-9.55 228.33-10.5L228.33-10.5 224.48-11.4Q220.08-12.45 218.33-13.9L218.33-13.9Q216.33-15.55 216.33-18.65L216.33-18.65Q216.33-22.15 219-24.2 221.68-26.25 226.18-26.25L226.18-26.25Q230.88-26.25 233.48-23.9L233.48-23.9Q235.73-21.85 235.73-18.65ZM263.73-11.8L263.73-11.65 244.78-11.65Q244.83-8.35 246.18-6.4L246.18-6.4Q248.33-3.25 252.38-3.25L252.38-3.25Q257.38-3.25 259.13-8L259.13-8 263.23-8Q262.43-3.95 259.53-1.7 256.63 0.55 252.23 0.55L252.23 0.55Q246.38 0.55 243.28-3.45L243.28-3.45Q240.53-6.95 240.53-12.7L240.53-12.7Q240.53-19.35 244.13-23.05L244.13-23.05Q247.28-26.25 252.28-26.25L252.28-26.25Q255.93-26.25 258.7-24.5 261.48-22.75 262.68-19.7L262.68-19.7Q263.73-17.1 263.73-11.8L263.73-11.8ZM244.93-15L259.33-15Q259.33-18.35 257.35-20.43 255.38-22.5 252.28-22.5L252.28-22.5Q249.13-22.5 247.15-20.48 245.18-18.45 244.93-15L244.93-15Z" opacity="1" transform="matrix(1,0,0,1,0,0)" fill="#ffffff" class="wordmark-text-0" data-fill-palette-color="primary" id="text-0"></path></svg></g></svg></g></svg></g></svg></g><g><svg viewBox="0 0 120.61183047882491 102.70604905907255" height="102.70604905907255" width="120.61183047882491"><g><svg xmlns="http://www.w3.org/2000/svg" xmlns:xlink="http://www.w3.org/1999/xlink" version="1.1" x="0" y="0" viewBox="32.3 46.49999999999998 191.3 162.90000000000003" style="enable-background:new 0 0 256 256;" xml:space="preserve" height="102.70604905907255" width="120.61183047882491" class="icon-icon-0" data-fill-palette-color="accent" id="icon-0"><g fill="#00d196" data-fill-palette-color="accent"><path d="M84.5 82.1c9 0 16.4-6.7 17.6-15.4h30.4l13 18.8c0.5 0.7 1.2 1 2 1h73.7c1.3 0 2.4-1.1 2.4-2.4 0-1.3-1.1-2.4-2.4-2.4h-72.5l-13-18.8c-0.5-0.7-1.2-1-2-1H102c-1.2-8.7-8.6-15.4-17.6-15.4-9.8 0-17.8 8-17.8 17.8S74.7 82.1 84.5 82.1zM84.5 51.4c7.1 0 12.9 5.8 12.9 12.9 0 0 0 0 0 0 0 0 0 0 0 0 0 7.1-5.8 12.9-12.9 12.9-7.1 0-12.9-5.8-12.9-12.9S77.3 51.4 84.5 51.4z" fill="#00d196" data-fill-palette-color="accent"></path><path d="M221.2 109.5h-76.7c-1.2-8.7-8.6-15.4-17.6-15.4-9.8 0-17.8 8-17.8 17.8s8 17.8 17.8 17.8c9 0 16.4-6.7 17.6-15.4h76.7c1.3 0 2.4-1.1 2.4-2.4C223.6 110.6 222.5 109.5 221.2 109.5zM126.9 124.9c-7.1 0-12.9-5.8-12.9-12.9S119.8 99 126.9 99c7.1 0 12.9 5.8 12.9 12.9 0 0 0 0 0 0s0 0 0 0C139.8 119.1 134 124.9 126.9 124.9z" fill="#00d196" data-fill-palette-color="accent"></path><path d="M221.2 140.3h-66.9c-0.8 0-1.6 0.4-2.1 1.1l-9.4 15h-41.2l-10.2-19c-0.4-0.8-1.2-1.3-2.1-1.3H67.7c-1.2-8.7-8.6-15.4-17.6-15.4-9.8 0-17.8 8-17.8 17.8s8 17.8 17.8 17.8c9 0 16.4-6.7 17.6-15.4h20.1l10.2 19c0.4 0.8 1.2 1.3 2.1 1.3h44c0.8 0 1.6-0.4 2.1-1.1l9.4-15h65.5c1.3 0 2.4-1.1 2.4-2.4C223.6 141.4 222.5 140.3 221.2 140.3zM50.1 151.6c-7.1 0-12.9-5.8-12.9-12.9s5.8-12.9 12.9-12.9c7.1 0 12.9 5.8 12.9 12.9 0 0 0 0 0 0s0 0 0 0C63.1 145.8 57.3 151.6 50.1 151.6z" fill="#00d196" data-fill-palette-color="accent"></path><path d="M221.2 168.6h-38.6c-0.9 0-1.7 0.5-2.1 1.2l-11.4 19.4h-58.2c-1.2-8.7-8.6-15.4-17.6-15.4-9.8 0-17.8 8-17.8 17.8 0 9.8 8 17.8 17.8 17.8 9 0 16.4-6.7 17.6-15.4h59.6c0.9 0 1.7-0.5 2.1-1.2l11.4-19.4h37.2c1.3 0 2.4-1.1 2.4-2.4C223.6 169.7 222.5 168.6 221.2 168.6zM93.3 204.6c-7.1 0-12.9-5.8-12.9-12.9 0-7.1 5.8-12.9 12.9-12.9 7.1 0 12.9 5.8 12.9 12.9C106.3 198.8 100.5 204.6 93.3 204.6z" fill="#00d196" data-fill-palette-color="accent"></path></g></svg></g></svg></g></svg></g><defs></defs></svg><rect width="395.5199999999999" height="76.23720635670354" fill="none" stroke="none" visibility="hidden"></rect></g></svg></g></svg>